<svg xmlns="http://www.w3.org/2000/svg" xmlns:xlink="http://www.w3.org/1999/xlink" width="16" height="16" class="stroke-current" version="1.1" viewBox="0 0 16 16"><g fill="none" fill-rule="evenodd" stroke="none" stroke-linecap="round" stroke-linejoin="round" stroke-width="1"><path stroke="currentColor" d="M15.5004,12.5003 C15.5004,13.0523 15.0524,13.5003 14.5004,13.5003 L3.5004,13.5003 C2.9474,13.5003 2.5004,13.0523 2.5004,12.5003 L2.5004,1.5003 C2.5004,0.9473 2.9474,0.5003 3.5004,0.5003 L14.5004,0.5003 C15.0524,0.5003 15.5004,0.9473 15.5004,1.5003 L15.5004,12.5003 Z"/><path stroke="currentColor" d="M13.5004,15.5003 L1.5004,15.5003 C0.9474,15.5003 0.5004,15.0523 0.5004,14.5003 L0.5004,2.5003"/><path stroke="currentColor" d="M5.5004,4.5003 L12.5004,4.5003"/><path stroke="currentColor" d="M5.5004,6.5003 L12.5004,6.5003"/><path stroke="currentColor" d="M5.5004,8.5003 L10.5004,8.5003"/></g></svg>