<svg xmlns="http://www.w3.org/2000/svg" xmlns:xlink="http://www.w3.org/1999/xlink" width="16" height="16" x="0" y="0" version="1.1" viewBox="0 0 16 16" xml:space="preserve" style="enable-background:new 0 0 16 16"><style type="text/css">.st0{fill:none;stroke:#000;stroke-linecap:round;stroke-linejoin:round;stroke-miterlimit:10}</style><path d="M1.1,8.7C0.8,8.8,0.5,9.2,0.5,9.6v3.8c0,0.4,0.3,0.8,0.6,0.9l3,1.1c0.2,0.1,0.5,0.1,0.7,0l3-1.1 c0.4-0.1,0.6-0.5,0.6-0.9V9.6c0-0.4-0.3-0.8-0.6-0.9l-3-1.1c-0.2-0.1-0.5-0.1-0.7,0L1.1,8.7z" class="st0"/><polyline points=".7 9.1 4.5 10.5 8.3 9.1" class="st0"/><line x1="4.5" x2="4.5" y1="10.5" y2="15.5" class="st0"/><path d="M15.3,2.6c-1,0.3-5.8,1.9-5.8,1.9L3.7,2.6" class="st0"/><line x1="9.5" x2="9.5" y1="4.5" y2="7" class="st0"/><path d="M3.5,5.5V3.2c0-0.4,0.3-0.8,0.7-0.9l5-1.7c0.2-0.1,0.4-0.1,0.6,0l5,1.7c0.4,0.1,0.7,0.5,0.7,0.9v5.7 c0,0.4-0.3,0.8-0.7,0.9l-4.3,1.4" class="st0"/></svg>