<svg xmlns="http://www.w3.org/2000/svg" xmlns:xlink="http://www.w3.org/1999/xlink" width="16" height="16" x="0" y="0" version="1.1" viewBox="0 0 16 16" xml:space="preserve" style="enable-background:new 0 0 16 16"><style type="text/css">.st0{fill:none;stroke:#000;stroke-linecap:round;stroke-linejoin:round;stroke-miterlimit:10}</style><g><path d="M4.5,10.5h-3c-0.6,0-1,0.4-1,1v3c0,0.6,0.4,1,1,1h3c0.6,0,1-0.4,1-1v-3C5.5,10.9,5.1,10.5,4.5,10.5z" class="st0"/><path d="M9.5,0.5h-3c-0.6,0-1,0.4-1,1v3c0,0.6,0.4,1,1,1h3c0.6,0,1-0.4,1-1v-3C10.5,0.9,10.1,0.5,9.5,0.5z" class="st0"/><path d="M14.5,10.5h-3c-0.6,0-1,0.4-1,1v3c0,0.6,0.4,1,1,1h3c0.6,0,1-0.4,1-1v-3C15.5,10.9,15.1,10.5,14.5,10.5z" class="st0"/><path d="M3,10.5v-1c0-0.6,0.4-1,1-1h8c0.6,0,1,0.4,1,1v1" class="st0"/><line x1="8" x2="8" y1="5.5" y2="8.5" class="st0"/></g></svg>