<svg xmlns="http://www.w3.org/2000/svg" xmlns:xlink="http://www.w3.org/1999/xlink" width="16" height="15" x="0" y="0" version="1.1" viewBox="0 0 16 15" xml:space="preserve" style="enable-background:new 0 0 16 15"><style type="text/css">.st0{fill:none;stroke:#000;stroke-linecap:round;stroke-linejoin:round;stroke-miterlimit:10}</style><g><circle cx="12.6" cy="2.6" r="2.1" class="st0"/><line x1="14.1" x2="15.5" y1="4.1" y2="5.5" class="st0"/></g><path d="M8.5,4.5h-7c-0.6,0-1-0.4-1-1v-1c0-0.6,0.4-1,1-1h7" class="st0"/><g><path d="M1.8,6.5C1.3,6.5,1,6.8,1,7.2S1.3,8,1.8,8s0.8-0.3,0.8-0.8S2.2,6.5,1.8,6.5L1.8,6.5z"/></g><g><line x1="4" x2="12" y1="7.5" y2="7.5" class="st0"/></g><g><path d="M1.8,10C1.3,10,1,10.3,1,10.8s0.3,0.8,0.8,0.8s0.8-0.3,0.8-0.8S2.2,10,1.8,10L1.8,10z"/></g><g><line x1="4" x2="12" y1="11" y2="11" class="st0"/></g><g><path d="M1.8,13.5c-0.4,0-0.8,0.3-0.8,0.8S1.3,15,1.8,15s0.8-0.3,0.8-0.8S2.2,13.5,1.8,13.5L1.8,13.5z"/></g><g><line x1="4" x2="12" y1="14.5" y2="14.5" class="st0"/></g></svg>