<svg xmlns="http://www.w3.org/2000/svg" xmlns:xlink="http://www.w3.org/1999/xlink" width="16" height="16" x="0" y="0" version="1.1" viewBox="0 0 16 16" xml:space="preserve" style="enable-background:new 0 0 16 16"><style type="text/css">.st0{fill:none;stroke:#000;stroke-linecap:round;stroke-linejoin:round;stroke-miterlimit:10}</style><line x1="5.5" x2="10.5" y1="15.5" y2="15.5" class="st0"/><line x1="8" x2="8" y1="13.5" y2="15.5" class="st0"/><line x1=".5" x2="15.5" y1="11" y2="11" class="st0"/><path d="M14.5,2c0.6,0,1,0.4,1,1v9.5c0,0.6-0.4,1-1,1h-13c-0.6,0-1-0.4-1-1V3c0-0.6,0.4-1,1-1" class="st0"/><path d="M3.5,9V1.5c0-0.6,0.4-1,1-1h7c0.6,0,1,0.4,1,1V9" class="st0"/><rect width="2" height="2" x="5.5" y="4.5" class="st0"/><line x1="3.5" x2="12.5" y1="2.5" y2="2.5" class="st0"/><line x1="9.5" x2="10.5" y1="4.5" y2="4.5" class="st0"/><line x1="9.5" x2="10.5" y1="6" y2="6" class="st0"/><line x1="5.5" x2="10.5" y1="8.5" y2="8.5" class="st0"/></svg>